<svg width="512" height="512" viewBox="0 0 512 512" fill="none" xmlns="http://www.w3.org/2000/svg">
  <defs>
    <linearGradient id="irisGradient" cx="50%" cy="50%" r="50%">
      <stop offset="0%" style="stop-color:#E3B34A;stop-opacity:1" />
      <stop offset="100%" style="stop-color:#D4A03A;stop-opacity:1" />
    </linearGradient>
    <filter id="eyeGlow">
      <feGaussianBlur stdDeviation="2.5" result="coloredBlur"/>
      <feMerge>
        <feMergeNode in="coloredBlur"/>
        <feMergeNode in="SourceGraphic"/>
      </feMerge>
    </filter>
  </defs>
  
  <!-- Hexagonal frame -->
  <path d="M 256 96 L 386 166 L 386 346 L 256 416 L 126 346 L 126 166 Z" 
        stroke="#003C51" 
        stroke-width="3" 
        stroke-linecap="round"
        stroke-linejoin="round"
        fill="none"/>
  
  <!-- Inner frame accent -->
  <path d="M 256 116 L 366 176 L 366 336 L 256 396 L 146 336 L 146 176 Z" 
        stroke="#003C51" 
        stroke-width="2" 
        stroke-linecap="round"
        stroke-linejoin="round"
        fill="none" 
        opacity="0.3"/>
  
  <!-- Eye outline (almond shape) -->
  <path d="M 166 256 Q 166 226 196 216 Q 226 206 256 206 Q 286 206 316 216 Q 346 226 346 256 Q 346 286 316 296 Q 286 306 256 306 Q 226 306 196 296 Q 166 286 166 256" 
        stroke="#003C51" 
        stroke-width="2.8" 
        stroke-linecap="round"
        fill="none"/>
  
  <!-- Iris (gold circle) -->
  <circle cx="256" cy="256" r="32" 
          fill="url(#irisGradient)" 
          filter="url(#eyeGlow)"/>
  
  <!-- Pupil (navy center) -->
  <circle cx="256" cy="256" r="16" 
          fill="#003C51"/>
  
  <!-- Teal reflection highlights -->
  <circle cx="264" cy="246" r="6" 
          fill="#2D9DA8" 
          opacity="0.8"/>
  <circle cx="268" cy="252" r="3" 
          fill="#2D9DA8" 
          opacity="0.6"/>
  
  <!-- Upper eyelid curve -->
  <path d="M 176 246 Q 216 226 256 226 Q 296 226 336 246" 
        stroke="#003C51" 
        stroke-width="2.5" 
        stroke-linecap="round"
        fill="none" 
        opacity="0.6"/>
  
  <!-- Lower eyelid curve -->
  <path d="M 176 266 Q 216 286 256 286 Q 296 286 336 266" 
        stroke="#003C51" 
        stroke-width="2.5" 
        stroke-linecap="round"
        fill="none" 
        opacity="0.6"/>
  
  <!-- Corner accents -->
  <circle cx="166" cy="256" r="4" fill="#2D9DA8" opacity="0.5"/>
  <circle cx="346" cy="256" r="4" fill="#2D9DA8" opacity="0.5"/>
</svg>
