<svg width="512" height="512" viewBox="0 0 512 512" fill="none" xmlns="http://www.w3.org/2000/svg">
  <defs>
    <radialGradient id="fingerprintGradient" cx="50%" cy="50%" r="50%">
      <stop offset="0%" style="stop-color:#E3B34A;stop-opacity:1" />
      <stop offset="50%" style="stop-color:#2D9DA8;stop-opacity:1" />
      <stop offset="100%" style="stop-color:#003C51;stop-opacity:1" />
    </radialGradient>
    <filter id="innerGlow">
      <feGaussianBlur stdDeviation="3" result="coloredBlur"/>
      <feMerge>
        <feMergeNode in="coloredBlur"/>
        <feMergeNode in="SourceGraphic"/>
      </feMerge>
    </filter>
  </defs>
  
  <!-- Center gold glow -->
  <circle cx="256" cy="256" r="20" fill="#E3B34A" opacity="0.8" filter="url(#innerGlow)"/>
  
  <!-- Inner fingerprint rings -->
  <path d="M 256 196 Q 286 196 306 216 Q 326 236 326 266 Q 326 296 306 316 Q 286 336 256 336 Q 226 336 206 316 Q 186 296 186 266 Q 186 236 206 216 Q 226 196 256 196" 
        stroke="#E3B34A" 
        stroke-width="3" 
        stroke-linecap="round"
        fill="none" 
        opacity="0.9"/>
  
  <!-- Middle rings with gaps for fingerprint effect -->
  <path d="M 256 166 A 90 90 0 0 1 346 256" 
        stroke="#2D9DA8" 
        stroke-width="2.8" 
        stroke-linecap="round"
        fill="none"/>
  <path d="M 346 256 A 90 90 0 0 1 256 346" 
        stroke="#2D9DA8" 
        stroke-width="2.8" 
        stroke-linecap="round"
        fill="none" 
        opacity="0.8"/>
  <path d="M 256 346 A 90 90 0 0 1 166 256" 
        stroke="#2D9DA8" 
        stroke-width="2.8" 
        stroke-linecap="round"
        fill="none"/>
  <path d="M 166 256 A 90 90 0 0 1 206 186" 
        stroke="#2D9DA8" 
        stroke-width="2.8" 
        stroke-linecap="round"
        fill="none" 
        opacity="0.8"/>
  
  <!-- Outer rings with more gaps -->
  <path d="M 256 126 A 130 130 0 0 1 386 256" 
        stroke="#003C51" 
        stroke-width="2.6" 
        stroke-linecap="round"
        fill="none"/>
  <path d="M 386 256 A 130 130 0 0 1 326 356" 
        stroke="#003C51" 
        stroke-width="2.6" 
        stroke-linecap="round"
        fill="none" 
        opacity="0.7"/>
  <path d="M 276 386 A 130 130 0 0 1 126 256" 
        stroke="#003C51" 
        stroke-width="2.6" 
        stroke-linecap="round"
        fill="none"/>
  <path d="M 126 256 A 130 130 0 0 1 186 156" 
        stroke="#003C51" 
        stroke-width="2.6" 
        stroke-linecap="round"
        fill="none" 
        opacity="0.7"/>
  
  <!-- Outermost energy rings -->
  <path d="M 256 86 A 170 170 0 0 1 426 256" 
        stroke="#003C51" 
        stroke-width="2.5" 
        stroke-linecap="round"
        stroke-dasharray="15,10"
        fill="none" 
        opacity="0.5"/>
  <path d="M 256 426 A 170 170 0 0 1 86 256" 
        stroke="#003C51" 
        stroke-width="2.5" 
        stroke-linecap="round"
        stroke-dasharray="15,10"
        fill="none" 
        opacity="0.5"/>
</svg>
